<?xml version="1.0" encoding="utf-8"?>
<!-- Generator: Adobe Illustrator 18.1.0, SVG Export Plug-In . SVG Version: 6.00 Build 0)  -->
<svg version="1.1" id="want" xmlns="http://www.w3.org/2000/svg" xmlns:xlink="http://www.w3.org/1999/xlink" x="0px" y="0px"
	 viewBox="0 0 199.2 181.1" enable-background="new 0 0 199.2 181.1" xml:space="preserve">
<g>
	<path fill="#FFFFFF" d="M142.8,66.5c0,0,11.1-30.1,20.5-22.9c0,0,1.4,1.1,2.8,3.5c2.2,3.8,4.4,10.4-3.1,14.7
		C162.9,61.8,157.1,65.3,142.8,66.5"/>
	<path fill="#FFFFFF" d="M57.4,84.9c0,0-23.4-19.5-32.8-13c0,0-3.7,1.9-5.6,7.4c-2.1,6.8-1.8,12.4,2,16.9c0,0,10.6,12.3,34.4-2.2
		L57.4,84.9z"/>
	<path fill="#FFFFFF" d="M44.2,94c0,0.3,0.4,0.4,0.4,0.4c1.6,0.7,2.5,1.2,3.4,1.9c2.7,2.1,2,4.3,0.2,6.4c-0.5,0.6-2.3,1.7-3.8,2.4
		c-2.5,1.2-4.9,1.8-4.9,1.8c-0.7,0.4-0.7,1.1-0.7,1.1c0,0.4,0.6,1,0.6,1c1,0.2,3,0.2,4.5,0.4c3.3,0.3,6.4,0.4,7.4,2.2
		c2,4.1-1.4,6.7-1.4,6.7c-0.5,0.5-0.3,0.7-0.3,0.7c0.1,0.2,0.5,0.2,0.5,0.2c1.7-0.1,3,0.2,4.1,0.6c8.1,2.7-3.7,13-3.7,13
		c-0.4,0.6-0.2,1.2-0.2,1.2c0.1,0.2,0.5,0.5,0.5,0.5c4.5-2,10.9-4.7,13.2-3c2.6,2,0.8,8.2,0.8,8.2c0.2,0.2,0.5,0,0.5,0
		c1.5-0.8,2.8-1,4-1.1c2-0.1,3.3,0.3,3.7,0.5c0.1,0.1,0.3,0.2,0.4,0.3c0,0,0,0,0,0c3.1,2.9,0.2,11,0.2,11c-0.2,0.7,0.1,0.7,0.1,0.7
		c0.2,0.2,0.5-0.1,0.5-0.1c0.5-0.4,1.4-1.4,2.2-2.1c1.3-1.3,2.6-2.5,3.8-3.2c1.3-0.8,4.4-1.7,5.9,0c1.6,1.9,1.5,6.5,1.5,6.5
		c0,0.7,0.3,0.7,0.3,0.7c0.2,0.1,0.4-0.2,0.4-0.2c1.1-1.3,2.5-2.5,3.5-3.1c2.1-1.1,3.7-0.7,3.7-0.7c4.7,0.7,5.2,10.7,5.2,10.7
		c0.1,0.7,0.4,0.6,0.4,0.6c0.2,0.1,0.4-0.3,0.4-0.3c2.8-8.8,6.5-9.8,6.5-9.8c3.7-0.7,6.2,4.6,6.2,4.6c0.3,0.6,0.5,0.7,0.5,0.7
		c0.3,0,0.3-0.6,0.3-0.6c0.4-1.7,1.1-2.8,1.8-3.7c1.7-2.5,3.7-2.7,3.7-2.7c4.2-0.6,7,3.1,7,3.1c0.4,0.6,0.6,0.4,0.6,0.4
		c0.2,0,0.2-0.5,0.2-0.5c0.1-1.7,0.5-3,0.9-4c1-2.6,2.4-3.2,2.4-3.2c3.9-2.3,8,4.8,8,4.8c0.5,0.5,1.6,0.2,1.6,0.2
		c0.3-0.2,0-0.6,0-0.6c-1.4-2.8-1.9-6-1.7-7.1c0.4-2.6,2.1-3.5,2-3.5c2.7-2.1,7.5,0.1,7.5,0.1c0.6,0.3,0.7,0.1,0.7,0.1
		c0.2-0.1,0-0.5,0-0.5c-0.9-1.8-1-3.3-1-4.5c0-2,1.3-3.5,1.3-3.5c3-3.2,10.1-0.1,10.1-0.1c0.7,0.2,0.7-0.1,0.7-0.1
		c0.2-0.2-0.1-0.5-0.1-0.5c-1.2-1.4-3.3-2.7-4.2-5.2c-0.7-2.3,0.1-3.9,0.1-3.9c1.8-3.6,7-3.1,7-3.1c0.7,0.1,0.7-0.2,0.7-0.2
		c0.1-0.2-0.2-0.5-0.2-0.5c-1.2-1.2-2.1-2.3-2.4-3.4c-0.5-1.9,0.3-3.7,2.4-4.8c3.3-1.5,8.1-1.2,8.1-1.2c0.7-0.1,0.6-0.8,0.6-0.8
		c0.1-0.2-0.3-0.8-0.3-0.8c-2.1-0.8-4.4-1.4-6.6-2.5c-0.8-0.4-2-1.5-2.2-1.7c-2.3-2.4-1.9-5-0.3-6.7c1.6-1.7,4.6-1.9,4.6-1.9
		c0.8-0.2,0.7-0.6,0.7-0.6c0-0.5-0.6-0.7-0.6-0.7c-1.6-0.6-2.8-1.3-3.7-2c-2.2-1.8-1.7-3.7-1.7-3.7c0.3-3.9,7.2-6.1,7.2-6.1
		c0.4-0.2,0.2-0.9,0.2-0.9c0-0.2-0.6-0.7-0.6-0.7c-2.3,0-5.2,0.5-7.7-0.4c-4.1-1.5-5.1-2.2-4-4.5c1.7-2.8,6-3.8,6-3.8
		c0.8-0.4,0.6-1.7,0.6-1.7c-0.2-0.4-1.2-0.4-1.2-0.4c-5.1-0.3-8.2-0.7-10.1-1.8c-4-2.3-5.2-2.9-6.1-5c-1.3-2.7-0.6-5.6-2.7-9.8
		c-2.2-3.4-3.7-4.8-7.4-6.2c0,0-1-0.5-3-0.7c-1.9-0.2-4.7-0.7-10.1-0.1c-3,0-3.9-1-5.9-2.2c-2.2-1.5-12.9-7.9-22.6-10.5
		c0,0-3.2-0.4-1.6,1.6c0,0,5,3.7,6.1,6.1c-0.2,0-0.3,0-0.5,0c-3.2-1-10.4-2.4-19.3-2.4c0,0-1.9,0.1-0.5,1.3c0,0,4.6,1.9,6.7,3.7
		c-3.4-0.4-8.9-0.6-18.7,2.9c0,0-2.5,1.7,1.5,1.3c0,0,9.1,0.6,11.3,2.2c-9.1,4.6-10.5,8.7-16.7,13.9c-2.4,2.2-4.6,2.2-7.2,3.5
		c-2.5,1.1-4.8,0.7-4.8,0.7c-0.7-0.1-2-0.7-2-0.7c-0.2,0.2,2.3,1.8,2.3,1.8c1.1,1.3,1.7,2,2,3.1c0.6,1.7-0.3,3-0.4,3.6
		c-0.5,1.3-2.1,3.2-5.1,4.5c-0.7,0.3-1.7,0.7-2.9,1c-1.7,0.5-2.6,0.7-2.7,1.5c-0.2,0.7,1.4,1.5,2.9,2.5c3.4,2.2,4.4,4.1,4.2,6.3
		c-1.2,3.7-5.3,5-5.3,5C44.1,93.8,44.2,94,44.2,94"/>
	<path fill="#FFFFFF" d="M77.4,64.5c0,0-24.3-28.1-31.4-19.4c0,0-1.3,1.7-2.1,4.8c-1.4,5-2.3,12.9,8,15.5
		C51.8,65.4,60.2,67.5,77.4,64.5"/>
	<path fill="#CD882A" d="M144.2,65c0,0,11.4-25.4,18.1-20.3c0,0,1.2,1,2.5,3.1c2,3.4,3.9,9.2-2.8,13C162.1,60.8,156.9,63.9,144.2,65
		"/>
	<path fill="#CD882A" d="M54.9,85.5c0,0-20.2-17.5-28.3-11.9c0,0-3.2,1.6-4.8,6.4c-1.8,5.9-1.5,11.5,1.8,15.4c0,0,9.1,10.6,29.6-1.9
		L54.9,85.5z"/>
	<path fill="#F8C870" d="M47.8,94.2c-0.1,0.2,0.3,0.3,0.3,0.3c1.5,0.6,2.4,1.2,3.2,1.8c2.5,1.9,1.9,4.5,0.2,6.5
		c-0.5,0.6-2.2,1.6-3.5,2.3c-2.3,1.1-4.7,1.7-4.7,1.7c-0.7,0.3-0.7,0.6-0.7,0.6c0,0.4,0.6,0.5,0.6,0.5c1,0.2,2.9,0.2,4.3,0.3
		c3.1,0.3,6.1,0.8,7,2.5c1.9,3.9-1.3,6.3-1.3,6.3c-0.5,0.4-0.3,0.6-0.3,0.6c0.1,0.2,0.4,0.2,0.4,0.2c1.6-0.1,2.8,0.2,3.8,0.6
		c7.6,2.5-3.5,12.6-3.5,12.6c-0.4,0.5-0.2,0.7-0.2,0.7c0.1,0.2,0.5,0.1,0.5,0.1c4.2-1.9,10.3-4,12.4-2.4c2.5,1.9,0.7,7.7,0.7,7.7
		c0.2,0.2,0.5,0,0.5,0c1.5-0.7,2.7-0.9,3.7-1c1.9-0.1,3.1,0.3,3.5,0.5c0.1,0.1,0.2,0.2,0.4,0.3c0,0,0,0,0,0
		c2.9,2.7,0.2,10.4,0.2,10.4c-0.2,0.6,0.1,0.7,0.1,0.7c0.2,0.2,0.5-0.1,0.5-0.1c0.5-0.3,1.3-1.3,2-2c1.3-1.2,2.5-2.3,3.6-3
		c1.2-0.7,4.2-1.6,5.6,0c1.5,1.8,1.4,6.1,1.4,6.1c0,0.7,0.2,0.7,0.2,0.7c0.2,0.1,0.4-0.2,0.4-0.2c1-1.2,2.4-2.4,3.3-2.9
		c2-1,3.5-0.7,3.5-0.7c4.4,0.6,4.9,9.6,4.9,9.6c0.1,0.6,0.4,0.6,0.4,0.6c0.2,0.1,0.4-0.3,0.4-0.3c2.6-8.3,6.1-8.8,6.1-8.8
		c3.5-0.7,5.8,4.3,5.8,4.3c0.3,0.6,0.5,0.7,0.5,0.7c0.2,0,0.3-0.6,0.3-0.6c0.4-1.6,1-2.6,1.7-3.5c1.6-2.4,3.5-2.5,3.5-2.5
		c3.9-0.5,6.6,3,6.6,3c0.4,0.5,0.6,0.4,0.6,0.4c0.2,0,0.2-0.4,0.2-0.4c0-1.6,0.5-2.8,0.9-3.8c1-2.5,2.3-3,2.3-3
		c3.7-2.2,8.4,4.5,8.4,4.5c0.4,0.5,0.7,0.2,0.7,0.2c0.2-0.2,0-0.6,0-0.6c-1.3-2.7-1.7-5.6-1.6-6.7c0.4-2.5,1.9-3.3,1.9-3.3
		c2.5-2,7.1,0.1,7.1,0.1c0.6,0.3,0.7,0.1,0.7,0.1c0.2-0.1,0-0.5,0-0.5c-0.8-1.7-1-3.1-1-4.2c0-1.8,1.2-3.3,1.2-3.3
		c2.8-3.1,9.5-0.1,9.5-0.1c0.6,0.2,0.7-0.1,0.7-0.1c0.2-0.2-0.1-0.5-0.1-0.5c-1.2-1.4-3.1-2.6-3.9-4.9c-0.7-2.1,0.1-3.7,0.1-3.7
		c1.7-3.4,6.6-3,6.6-3c0.7,0.1,0.7-0.2,0.7-0.2c0.1-0.2-0.2-0.4-0.2-0.4c-1.2-1.1-2-2.1-2.2-3.2c-0.5-1.8,0.3-3.5,2.3-4.5
		c3.1-1.5,8.1-1.6,8.1-1.6c0.7-0.1,0.6-0.4,0.6-0.4c0.1-0.2-0.3-0.4-0.3-0.4c-2-0.8-4.5-1.7-6.6-2.8c-0.8-0.4-1.9-1.4-2.1-1.6
		c-2.2-2.3-1.8-4.7-0.3-6.3c1.5-1.6,4.3-1.8,4.3-1.8c0.7-0.2,0.6-0.5,0.6-0.5c0-0.5-0.6-0.7-0.6-0.7c-1.5-0.6-2.7-1.2-3.5-1.9
		c-2.1-1.7-1.6-3.5-1.6-3.5c0.3-3.7,6.8-6.1,6.8-6.1c0.4-0.2,0.2-0.5,0.2-0.5c0-0.2-0.6-0.2-0.6-0.2c-2.1,0-4.9,0.1-7.2-0.8
		c-3.8-1.4-4.8-3.3-3.8-5.4c1.6-2.6,5.7-4,5.7-4c0.8-0.4,0.6-0.8,0.6-0.8c-0.2-0.4-1.1-0.4-1.1-0.4c-1.6,0.1-5.4-0.5-8.5-1.1
		c-4.2-0.9-5.9-2.4-6.8-4.4c-1.2-2.5-0.6-6.2-2.6-10.1c-2.1-3.2-3.5-4.6-6.9-5.8c0,0-0.9-0.4-2.8-0.7c-1.8-0.2-4.4-0.2-9.5,0.3
		c-2.9,0-3.6-0.5-5.5-1.7c-2-1.4-9.3-8.2-18.5-10.6c0,0-1.8-0.4-0.7,1.1c0,0,4.7,3.5,5.7,5.7c-0.2,0-0.3,0-0.5,0
		c-3-1-9.4-2.7-17.8-2.8c0,0-1.8,0.1-0.4,1.2c0,0,4.3,1.8,6.3,3.5c-3.2-0.4-9.7-0.8-17.7,0.6c0,0-1.8,0.5-0.2,1.3
		c0,0,10.2,1.3,12.3,2.8c-8,2.7-13.9,9.4-19.8,14.4c-2.3,2.1-4.3,3.7-6.8,4.9c-2.4,1-4.5,0.7-4.5,0.7c-0.6-0.1-0.7,0.1-0.7,0.1
		c-0.1,0.2,0.1,0.4,0.1,0.4c1.1,1.2,1.6,2.3,1.9,3.4c0.5,1.6,0.5,2.8,0.5,3.4c-0.5,1.2-2,3-4.8,4.2c-0.7,0.3-1.6,0.6-2.7,0.9
		c-1.6,0.5-2.4,0.7-2.6,1.4c-0.1,0.7,1.3,1.4,2.7,2.3c3.2,2.1,4.1,3.9,4,5.9c-1.1,3.5-5,4.7-5,4.7C47.7,94,47.8,94.2,47.8,94.2"/>
	<path fill="#CD882A" d="M74.6,63c0,0-21-24.3-27.2-16.7c0,0-1.1,1.5-1.8,4.1c-1.2,4.3-1.6,11.2,7.3,13.4
		C52.8,63.8,59.7,65.6,74.6,63"/>
	<path fill="#FFFFFF" d="M86.6,59c0.1,4.1,3.6,7.3,7.7,7.1c4.1-0.1,7.3-3.6,7.2-7.7c-0.1-4.1-3.6-7.3-7.7-7.1
		C89.6,51.4,86.4,54.9,86.6,59"/>
	<path fill="#9A5425" d="M96.7,58.5c0,1.5-1.2,2.7-2.7,2.7c-1.5,0-2.7-1.2-2.7-2.7c0-1.5,1.2-2.7,2.7-2.7
		C95.5,55.8,96.7,57,96.7,58.5"/>
	<path fill="#FFFFFF" d="M109.5,59c0.1,4.1,3.6,7.3,7.7,7.1c4.1-0.1,7.3-3.6,7.2-7.7c-0.1-4.1-3.6-7.3-7.7-7.1
		C112.6,51.4,109.4,54.9,109.5,59"/>
	<path fill="#9A5425" d="M119.6,58.5c0,1.5-1.2,2.7-2.7,2.7c-1.5,0-2.7-1.2-2.7-2.7c0-1.5,1.2-2.7,2.7-2.7
		C118.4,55.8,119.6,57,119.6,58.5"/>
	<path fill="#FFE1B2" d="M153.3,102.2c-2.5-8.8-12.5-19.8-37.2-19.8c-23.1,0-38.1,9.1-39.3,24.4c-0.3,4,0.2,8.3,1.9,12.3
		c-14.2-4.6-21.4-15.3-22.4-29c0,0-4.9,42.5,35.9,50.4C143.6,150.5,157.1,115.9,153.3,102.2"/>
	<path fill="#FFFFFF" d="M117.7,112.9c1.3,0.9,1.7,2.7,0.9,4.1c-0.8,1.4-2.5,1.8-3.7,0.9c-1.3-0.9-1.7-2.7-0.9-4.1
		C114.7,112.5,116.4,112.1,117.7,112.9"/>
	<path fill="#FFFFFF" d="M113.3,106.3c-0.1,1.3-1.3,2.3-2.7,2.1c-1.3-0.1-2.3-1.3-2.1-2.6c0.1-1.3,1.3-2.3,2.6-2.1
		C112.5,103.8,113.5,105,113.3,106.3"/>
	<path fill="#FFFFFF" d="M136.4,114.4c-0.7,0.5-0.8,1.5-0.3,2.1c0.5,0.6,1.5,0.8,2.2,0.2c0.7-0.5,0.8-1.5,0.2-2.1
		C138.1,114,137.1,113.9,136.4,114.4"/>
	<path fill="#FFFFFF" d="M102.8,119.3c-0.7,0.5-0.8,1.5-0.3,2.1c0.5,0.6,1.5,0.8,2.2,0.2c0.7-0.5,0.8-1.5,0.3-2.1
		C104.5,118.9,103.5,118.8,102.8,119.3"/>
	<path fill="#FFFFFF" d="M142.6,103.7c0.1,1,0.9,1.8,1.9,1.7c0.9-0.1,1.6-1,1.5-2.1c-0.1-1-0.9-1.8-1.9-1.7
		C143.1,101.7,142.5,102.7,142.6,103.7"/>
	<path fill="#FFFFFF" d="M129.7,109.8c-0.1,1.3-1.3,2.3-2.7,2.1c-1.3-0.1-2.3-1.3-2.1-2.6c0.1-1.3,1.3-2.2,2.6-2.1
		C128.9,107.3,129.9,108.5,129.7,109.8"/>
	<path fill="#FFFFFF" d="M136.1,102.2c-0.5,1.9-2.5,2.9-4.3,2.4c-1.8-0.5-2.9-2.5-2.4-4.3c0.5-1.9,2.5-2.9,4.3-2.4
		C135.5,98.4,136.6,100.3,136.1,102.2"/>
	<path fill="#9A5425" d="M99.8,70c-3.6-0.6-0.8,5,4,5c3.1,0,6.1-1.9,4.9-4.8C108.7,70.1,103.1,70.5,99.8,70z"/>
	<g>
		<path fill="#5FCAE3" d="M100,74.2C100,74.2,99.9,74.4,100,74.2c0,0.1,0,0.2,0,0.5c0,0.4-0.1,1.2,0,2.2c0.1,1,0.3,2.3,0.6,3.6
			c0.1,0.4,0.2,0.8,0.3,1.2c0.1,0.4,0.2,1,0.3,1.5c0.1,1,0.2,2.1,0.2,3.2c-0.1,2.2-0.5,4.4-0.9,6.6c-0.4,2.3-1,4.6-1.3,6.9
			c-0.1,1.2-0.1,2.3,0.1,3.5c0.1,0.5,0.2,1.1,0.5,1.6l0.2,0.5c0.1,0.2,0.1,0.4,0.2,0.6c0.1,0.4,0.2,0.7,0.2,1.1
			c0.2,1.5,0,2.8-0.1,4.2c-0.2,1.3-0.4,2.7-0.6,4c-0.4,2.6-0.8,5.2-0.9,7.8c0,1.3,0,2.5,0.1,3.8c0.1,1.2,0.3,2.5,0.3,3.8
			c0.1,1.3,0.1,2.5,0.2,3.7c0.1,1.2,0.3,2.4,0.4,3.5c0.3,2.3,0.5,4.5,0.7,6.5c0.2,2,0.4,3.9,0.6,5.5c0.2,1.6,0.3,3.1,0.5,4.2
			c0.1,1.2,0.2,2.1,0.3,2.7c0,0.1,0,0.3,0.1,0.4c0,0.1,0,0.1,0.1,0.2c0,0.1,0,0.1,0,0.1c0.7,2.1-0.4,4.3-2.5,5
			c-2.1,0.7-4.3-0.4-5-2.5c-0.2-0.6-0.2-1.2-0.2-1.8l0.1-0.5c0,0,0-0.1,0-0.4c0-0.1,0-0.3,0.1-0.4c0-0.1,0.1-0.3,0.1-0.4
			c0.1-0.6,0.3-1.5,0.6-2.7c0.5-2.3,1.2-5.5,1.8-9.5c0.3-2,0.5-4.1,0.7-6.4c0.1-1.1,0.2-2.3,0.2-3.5c0-1.2-0.2-2.4-0.3-3.6
			c-0.2-1.2-0.4-2.4-0.5-3.8c-0.1-1.3-0.2-2.6-0.2-4c0-2.7,0.4-5.4,0.7-8c0.3-2.6,0.8-5.3,0.5-7.6c0-0.3-0.1-0.6-0.2-0.8l-0.1-0.3
			l-0.2-0.4c-0.3-0.7-0.6-1.4-0.7-2.1c-0.3-1.4-0.4-2.8-0.4-4.1c0-2.6,0.4-5.1,0.6-7.3c0.3-2.2,0.4-4.3,0.5-6.1
			c0-0.9-0.1-1.8-0.2-2.5c-0.1-0.4-0.1-0.6-0.2-1.1c0-0.2-0.1-0.4-0.1-0.6c-0.1-0.2-0.1-0.5-0.2-0.7c-0.4-1.8-0.3-3.4-0.1-4.7
			c0.2-1.3,0.6-2.3,1.1-3c0.2-0.4,0.5-0.6,0.7-0.8c0.4-0.3,0.4-0.2,0.4-0.2c0.4-0.3,1-0.2,1.4,0.2C100.5,73.3,100.4,73.9,100,74.2z"
			/>
	</g>
	<path fill="#5FCAE3" d="M108.5,73c0,0-0.6,2-5,2c-3.7,0-4.9-2.5-4.9-2.5s2.8,0.2,5.1-0.4C106.1,71.5,108.5,73,108.5,73z"/>
</g>
</svg>
