<?xml version="1.0" encoding="utf-8"?>
<!-- Generator: Adobe Illustrator 18.1.0, SVG Export Plug-In . SVG Version: 6.00 Build 0)  -->
<svg version="1.1" id="Layer_1" xmlns="http://www.w3.org/2000/svg" xmlns:xlink="http://www.w3.org/1999/xlink" x="0px" y="0px"
	 viewBox="0 0 364.2 298.1" enable-background="new 0 0 364.2 298.1" xml:space="preserve">
<g>
	<path fill="#FFFFFF" d="M287.2,82.9c0,0,25.5-69.2,47.1-52.6c0,0,3.2,2.6,6.4,8.1c5.1,8.8,10.1,23.9-7.2,33.8
		C333.4,72.2,320,80.2,287.2,82.9z"/>
	<path fill="#FFFFFF" d="M91.1,125.3c0,0-53.7-44.7-75.4-29.8c0,0-8.6,4.3-12.8,17c-4.8,15.6-4,28.5,4.7,38.9c0,0,24.3,28.4,79-5.1
		L91.1,125.3z"/>
	<path fill="#FFFFFF" d="M60.7,146.3c-0.1,0.6,0.8,0.8,0.8,0.8c3.6,1.5,5.8,2.9,7.9,4.5c6.2,4.7,4.7,9.9,0.5,14.7
		c-1.2,1.4-5.3,4-8.6,5.6c-5.7,2.7-11.4,4.2-11.4,4.2c-1.7,0.8-1.6,2.5-1.6,2.5c0,0.9,1.4,2.2,1.4,2.2c2.4,0.5,7,0.5,10.4,0.9
		c7.6,0.8,14.8,1,17,5.1c4.6,9.5-3.3,15.4-3.3,15.4c-1.2,1.1-0.8,1.5-0.8,1.5c0.1,0.6,1.1,0.4,1.1,0.4c3.9-0.2,6.8,0.5,9.3,1.4
		c18.6,6.2-8.5,29.7-8.5,29.7c-1,1.3-0.4,2.7-0.4,2.7c0.3,0.5,1.1,1.1,1.1,1.1c10.3-4.7,25-10.9,30.3-6.9c6.1,4.6,1.8,18.9,1.8,18.9
		c0.4,0.5,1.2-0.1,1.2-0.1c3.5-1.7,6.5-2.3,9.1-2.5c4.5-0.3,7.6,0.7,8.6,1.1c0.3,0.2,0.6,0.4,0.9,0.6c0,0-0.1,0-0.1,0
		c7,6.6,0.4,25.2,0.4,25.2c-0.4,1.6,0.2,1.7,0.2,1.7c0.5,0.4,1.1-0.3,1.1-0.3c1.1-0.8,3.3-3.2,5-4.9c3.1-3,6-5.7,8.6-7.3
		c3-1.8,10.2-3.9,13.6,0c3.7,4.4,3.5,15,3.5,15c0,1.6,0.6,1.6,0.6,1.6c0.5,0.3,1-0.5,1-0.5c2.5-3,5.8-5.7,8.1-7
		c4.8-2.5,8.5-1.6,8.5-1.6c10.8,1.6,11.9,24.5,11.9,24.5c0.3,1.6,0.9,1.4,0.9,1.4c0.6,0.2,0.9-0.7,0.9-0.7
		c6.4-20.2,14.9-22.5,14.9-22.5c8.5-1.6,14.2,10.6,14.2,10.6c0.7,1.5,1.2,1.7,1.2,1.7c0.6,0,0.8-1.5,0.8-1.5c1-3.8,2.6-6.4,4.1-8.6
		c3.9-5.8,8.5-6.2,8.5-6.2c9.6-1.3,16.2,7.2,16.2,7.2c1,1.3,1.5,0.9,1.5,0.9c0.6-0.1,0.5-1.1,0.5-1.1c0.1-3.9,1.1-6.8,2.1-9.2
		c2.4-6,5.6-7.4,5.6-7.4c9.1-5.4,18.4,11,18.4,11c1.1,1.2,3.6,0.6,3.6,0.6c0.6-0.4,0-1.4,0-1.4c-3.1-6.5-4.3-13.7-3.8-16.3
		c1-6,4.8-8,4.6-7.9c6.2-4.9,17.3,0.2,17.3,0.2c1.4,0.8,1.7,0.2,1.7,0.2c0.5-0.3,0-1.1,0-1.1c-2-4.1-2.4-7.7-2.4-10.3
		c0-4.5,2.9-8.1,2.9-8.1c6.8-7.5,23.3-0.2,23.3-0.2c1.6,0.5,1.7-0.1,1.7-0.1c0.4-0.4-0.2-1.1-0.2-1.1c-2.8-3.3-7.6-6.2-9.6-12
		c-1.7-5.2,0.2-9,0.2-9c4-8.3,16.2-7.2,16.2-7.2c1.6,0.1,1.6-0.5,1.6-0.5c0.3-0.5-0.5-1.1-0.5-1.1c-2.8-2.7-4.8-5.2-5.4-7.7
		c-1.1-4.2,0.7-8.6,5.5-10.9c7.5-3.6,18.7-2.9,18.7-2.9c1.6-0.2,1.5-1.8,1.5-1.8c0.2-0.6-0.7-1.9-0.7-1.9
		c-4.8-1.9-10.1-3.1-15.2-5.8c-1.9-1-4.5-3.3-5-3.8c-5.3-5.6-4.4-11.5-0.7-15.3c3.7-3.8,10.5-4.5,10.5-4.5c1.7-0.5,1.6-1.3,1.6-1.3
		c0.1-1.2-1.5-1.6-1.5-1.6c-3.7-1.4-6.5-2.9-8.6-4.6c-5-4.1-3.9-8.6-3.9-8.6c0.7-8.9,16.5-14,16.5-14c1-0.4,0.6-2.1,0.6-2.1
		c0-0.6-1.4-1.5-1.4-1.5c-5.3-0.1-11.8,1.2-17.7-1c-9.3-3.5-11.7-5.1-9.2-10.2c4-6.4,13.8-8.6,13.8-8.6c1.9-0.9,1.4-3.9,1.4-3.9
		c-0.5-1-2.7-0.9-2.7-0.9c-11.7-0.6-18.9-1.6-23.2-4c-9.2-5.2-12-6.6-14.1-11.5c-2.9-6.1-1.4-13-6.3-22.6
		c-5.1-7.8-8.6-11.1-16.9-14.3c0,0-2.3-1.1-6.9-1.6c-4.4-0.5-10.8-1.6-23.2-0.3c-7,0-8.9-2.3-13.5-5.1c-5-3.4-29.6-18.2-52-24.1
		c0,0-7.3-0.9-3.8,3.6c0,0,11.6,8.5,14,13.9c-0.4,0-0.8,0-1.1,0.1c-7.3-2.4-23.8-5.4-44.3-5.6c0,0-4.4,0.3-1.1,3
		c0,0,10.5,4.3,15.4,8.5c-7.9-1-20.5-1.5-43,6.6c0,0-5.8,3.9,3.5,3c0,0,20.9,1.4,26,5c-21,10.5-24.2,19.9-38.5,32
		c-5.6,5.1-10.6,5.1-16.6,7.9c-5.8,2.6-11,1.7-11,1.7c-1.6-0.3-4.7-1.7-4.7-1.7c-0.3,0.5,5.4,4.1,5.4,4.1c2.6,3,3.8,4.7,4.7,7.2
		c1.3,3.8-0.7,6.9-0.9,8.2c-1.2,3-4.8,7.4-11.8,10.2c-1.7,0.7-3.9,1.6-6.6,2.2c-3.9,1.1-5.9,1.7-6.3,3.3c-0.4,1.6,3.2,3.4,6.7,5.7
		c7.9,5.1,10.1,9.4,9.7,14.4c-2.7,8.6-12.1,11.5-12.1,11.5C60.5,145.7,60.7,146.3,60.7,146.3z"/>
	<path fill="#FFFFFF" d="M137,78.4c0,0-55.9-64.4-72.2-44.5c0,0-2.9,3.9-4.9,11c-3.2,11.4-5.2,29.7,18.3,35.5
		C78.1,80.4,97.4,85.3,137,78.4z"/>
	<g>
		<path fill="#CD872A" d="M290.6,79.5c0,0,26.2-58.3,41.7-46.6c0,0,2.8,2.3,5.6,7.2c4.5,7.8,8.9,21.2-6.4,29.9
			C331.5,70,319.6,77.1,290.6,79.5z"/>
		<path fill="#CD872A" d="M85.2,126.6c0,0-46.3-40.3-65-27.4c0,0-7.4,3.7-11,14.7c-4.1,13.4-3.5,26.3,4.1,35.3c0,0,21,24.5,68.1-4.4
			L85.2,126.6z"/>
		<path fill="#F8C76F" d="M68.9,146.7c-0.1,0.5,0.8,0.8,0.8,0.8c3.4,1.4,5.5,2.7,7.5,4.2c5.8,4.5,4.4,10.3,0.5,14.8
			c-1.1,1.3-5,3.8-8.2,5.3c-5.4,2.6-10.7,4-10.7,4c-1.6,0.7-1.5,1.4-1.5,1.4c0,0.8,1.4,1.1,1.4,1.1c2.2,0.5,6.6,0.5,9.8,0.8
			c7.2,0.7,13.9,1.9,16,5.7c4.3,9-3.1,14.5-3.1,14.5c-1.1,1-0.7,1.5-0.7,1.5c0.1,0.5,1,0.3,1,0.3c3.7-0.2,6.5,0.5,8.8,1.3
			c17.5,5.9-8,29-8,29c-0.9,1.2-0.4,1.6-0.4,1.6c0.2,0.5,1.1,0.1,1.1,0.1c9.7-4.4,23.6-9.3,28.5-5.6c5.7,4.3,1.7,17.8,1.7,17.8
			c0.3,0.4,1.1-0.1,1.1-0.1c3.3-1.6,6.1-2.1,8.6-2.3c4.3-0.3,7.2,0.7,8.1,1.1c0.3,0.2,0.6,0.4,0.8,0.6c0,0-0.1,0-0.1,0
			c6.6,6.3,0.3,23.8,0.3,23.8c-0.4,1.5,0.2,1.6,0.2,1.6c0.4,0.4,1.1-0.3,1.1-0.3c1-0.8,3.1-3.1,4.7-4.6c2.9-2.8,5.7-5.4,8.1-6.8
			c2.8-1.7,9.6-3.7,12.8,0c3.5,4.1,3.3,14.1,3.3,14.1c0,1.5,0.6,1.5,0.6,1.5c0.5,0.3,1-0.5,1-0.5c2.4-2.8,5.4-5.4,7.6-6.6
			c4.6-2.4,8-1.5,8-1.5c10.2,1.5,11.2,22.2,11.2,22.2c0.3,1.5,0.9,1.3,0.9,1.3c0.5,0.2,0.8-0.7,0.8-0.7c6-19.1,14.1-20.3,14.1-20.3
			c8-1.5,13.4,9.9,13.4,9.9c0.6,1.4,1.1,1.6,1.1,1.6c0.6,0,0.7-1.4,0.7-1.4c0.9-3.6,2.4-6,3.8-8.1c3.7-5.5,8-5.8,8-5.8
			c9-1.2,15.2,6.8,15.2,6.8c0.9,1.2,1.4,0.8,1.4,0.8c0.5-0.1,0.4-1,0.4-1c0.1-3.7,1.1-6.4,2-8.7c2.3-5.7,5.3-7,5.3-7
			c8.5-5,19.2,10.3,19.2,10.3c1,1.2,1.5,0.5,1.5,0.5c0.6-0.4,0-1.4,0-1.4c-3-6.2-4-12.9-3.6-15.4c1-5.6,4.5-7.5,4.4-7.5
			c5.9-4.6,16.3,0.2,16.3,0.2c1.3,0.7,1.6,0.2,1.6,0.2c0.5-0.3,0-1.1,0-1.1c-1.9-3.9-2.3-7.3-2.3-9.8c0-4.2,2.7-7.7,2.7-7.7
			c6.4-7,21.9-0.1,21.9-0.1c1.5,0.4,1.6-0.1,1.6-0.1c0.4-0.4-0.2-1.1-0.2-1.1c-2.7-3.1-7.2-5.9-9-11.4c-1.6-4.9,0.1-8.5,0.1-8.5
			c3.8-7.8,15.3-6.8,15.3-6.8c1.5,0.1,1.5-0.5,1.5-0.5c0.3-0.5-0.4-1-0.4-1c-2.7-2.6-4.5-4.9-5.1-7.3c-1.1-4,0.6-8.1,5.2-10.3
			c7.1-3.4,18.6-3.7,18.6-3.7c1.5-0.2,1.4-0.8,1.4-0.8c0.2-0.5-0.6-0.9-0.6-0.9c-4.5-1.8-10.4-3.9-15.2-6.4
			c-1.8-0.9-4.3-3.1-4.7-3.6c-5-5.2-4.2-10.8-0.7-14.4c3.5-3.6,9.9-4.2,9.9-4.2c1.6-0.4,1.5-1.2,1.5-1.2c0.1-1.1-1.4-1.5-1.4-1.5
			c-3.5-1.3-6.1-2.7-8.1-4.3c-4.8-3.8-3.7-8.1-3.7-8.1c0.6-8.4,15.6-14.1,15.6-14.1c1-0.4,0.5-1.1,0.5-1.1c0-0.5-1.3-0.5-1.3-0.5
			c-5-0.1-11.2,0.2-16.7-1.9c-8.8-3.3-11-7.7-8.7-12.5c3.8-6,13-9.1,13-9.1c1.8-0.8,1.3-1.8,1.3-1.8c-0.5-0.9-2.6-0.9-2.6-0.9
			c-3.7,0.2-12.4-1.1-19.5-2.6c-9.8-2.1-13.7-5.5-15.6-10.1c-2.8-5.8-1.3-14.1-5.9-23.1c-4.8-7.3-8.1-10.5-15.9-13.4
			c0,0-2.2-1-6.5-1.5c-4.1-0.5-10.1-0.5-21.9,0.7c-6.6,0-8.4-1.2-12.7-3.9c-4.7-3.2-21.5-18.8-42.6-24.3c0,0-4.1-0.8-1.7,2.5
			c0,0,10.9,8,13.2,13.1c-0.4,0-0.7,0-1.1,0.1c-6.9-2.2-21.6-6.1-40.8-6.3c0,0-4.2,0.3-1,2.8c0,0,9.9,4,14.6,8
			c-7.5-0.9-22.3-1.9-40.6,1.4c0,0-4.1,1-0.5,3c0,0,23.5,3,28.3,6.4c-18.4,6.1-32,21.6-45.5,33c-5.3,4.8-9.9,8.5-15.6,11.3
			c-5.5,2.4-10.3,1.6-10.3,1.6c-1.5-0.3-1.6,0.3-1.6,0.3c-0.3,0.4,0.4,1,0.4,1c2.4,2.8,3.6,5.4,4.4,7.7c1.2,3.6,1.2,6.5,1.1,7.8
			c-1.1,2.9-4.5,7-11.1,9.6c-1.6,0.6-3.7,1.5-6.2,2.1c-3.7,1.1-5.5,1.6-5.9,3.1c-0.3,1.5,3,3.2,6.3,5.4c7.4,4.8,9.5,8.9,9.1,13.6
			c-2.5,8.1-11.4,10.9-11.4,10.9C68.7,146.2,68.9,146.7,68.9,146.7z"/>
		<path fill="#CD872A" d="M130.5,75c0,0-48.4-55.8-62.5-38.5c0,0-2.5,3.4-4.2,9.5c-2.8,9.8-3.7,25.7,16.7,30.7
			C80.4,76.8,96.3,81,130.5,75z"/>
	</g>
	<path fill="#FFFFFF" d="M183.4,56c0.3,9.4,8.2,16.8,17.6,16.4c9.4-0.3,16.8-8.2,16.4-17.6c-0.3-9.4-8.2-16.8-17.6-16.4
		C190.4,38.7,183,46.6,183.4,56z"/>
	<path fill="#995425" d="M211.3,54.9c0,3.4-2.8,6.2-6.2,6.2c-3.4,0-6.2-2.8-6.2-6.2c0-3.4,2.8-6.2,6.2-6.2
		C208.5,48.7,211.3,51.5,211.3,54.9z"/>
	<path fill="#FFFFFF" d="M245.9,60.3c0.3,8,7,14.3,15.1,14c8-0.3,14.3-7,14.1-15.1c-0.3-8-7-14.3-15.1-14.1
		C251.9,45.5,245.6,52.3,245.9,60.3z"/>
	<path fill="#995425" d="M269.8,58.4c0,2.9-2.4,5.3-5.3,5.3c-2.9,0-5.3-2.4-5.3-5.3c0-2.9,2.4-5.3,5.3-5.3
		C267.5,53.1,269.8,55.4,269.8,58.4z"/>
	<path fill="#FFE0B1" d="M311.3,165c-5.7-20.1-28.8-45.4-85.4-45.4c-53.1,0-87.6,20.8-90.4,56c-0.7,9.2,0.4,19,4.4,28.2
		c-32.6-10.6-49.3-35.2-51.5-66.7c0,0-11.2,97.7,82.6,115.9C289.1,276.1,320.2,196.5,311.3,165z"/>
	<path fill="#FFFFFF" d="M229.6,189.7c2.9,2,3.9,6.3,2.1,9.5c-1.8,3.2-5.6,4.2-8.6,2.2c-3-2-3.9-6.3-2.1-9.5
		C222.7,188.7,226.6,187.7,229.6,189.7z"/>
	<path fill="#FFFFFF" d="M219.5,174.4c-0.3,3-3.1,5.2-6.1,4.9c-3-0.3-5.2-2.9-4.9-5.9c0.3-3,3.1-5.2,6.1-4.9
		C217.7,168.8,219.9,171.5,219.5,174.4z"/>
	<path fill="#FFFFFF" d="M272.5,193.1c-1.6,1.2-1.8,3.4-0.6,4.9c1.3,1.5,3.5,1.7,5.1,0.5c1.6-1.2,1.8-3.4,0.6-4.8
		C276.3,192.2,274,192,272.5,193.1z"/>
	<path fill="#FFFFFF" d="M182.4,193.1c-1.6,1.2-1.8,3.4-0.6,4.9c1.2,1.5,3.5,1.7,5.1,0.5c1.6-1.2,1.8-3.4,0.6-4.8
		C186.3,192.2,184,192,182.4,193.1z"/>
	<path fill="#FFFFFF" d="M186.2,144.8c-1.6,1.2-1.8,3.4-0.6,4.9c1.2,1.5,3.5,1.7,5.1,0.5c1.6-1.2,1.8-3.4,0.6-4.8
		C190,143.9,187.8,143.6,186.2,144.8z"/>
	<path fill="#FFFFFF" d="M286.7,168.5c0.2,2.4,2.2,4.1,4.3,3.9c2.1-0.2,3.7-2.3,3.4-4.7c-0.2-2.4-2.2-4.2-4.3-3.9
		C288,164,286.5,166.1,286.7,168.5z"/>
	<path fill="#FFFFFF" d="M257.1,182.5c-0.3,3-3.1,5.2-6.1,4.9c-3-0.3-5.2-2.9-4.9-5.9c0.3-3,3.1-5.2,6.1-4.9
		C255.3,176.8,257.5,179.5,257.1,182.5z"/>
	<path fill="#FFFFFF" d="M271.7,165c-1.2,4.3-5.7,6.7-9.9,5.5c-4.3-1.2-6.7-5.7-5.5-10c1.2-4.3,5.7-6.7,9.9-5.5
		C270.5,156.2,272.9,160.7,271.7,165z"/>
	<path fill="#995425" d="M259.4,89.9c0,0-21.8,9.8-70.4,0c-8.1-1.6,49.6,21.8,60.7,21.3C260.7,110.7,243.3,104.7,259.4,89.9z"/>
</g>
</svg>
