<?xml version="1.0" encoding="utf-8"?>
<!-- Generator: Adobe Illustrator 18.1.0, SVG Export Plug-In . SVG Version: 6.00 Build 0)  -->
<svg version="1.1" id="Layer_2" xmlns="http://www.w3.org/2000/svg" xmlns:xlink="http://www.w3.org/1999/xlink" x="0px" y="0px"
	 viewBox="0 0 208.8 236.5" enable-background="new 0 0 208.8 236.5" xml:space="preserve">
<g>
	<path fill="#CA842A" d="M119.6,173.5c0,0-7.8-17.4-12.5-13.9c0,0-0.8,0.7-1.7,2.1c-1.3,2.3-2.7,6.3,1.9,9
		C107.4,170.7,110.9,172.8,119.6,173.5"/>
	<path fill="#CA842A" d="M181.1,185.1c0,0,13.9-12.1,19.5-8.2c0,0,2.2,1.1,3.3,4.4c1.2,4,1,7.9-1.2,10.6c0,0-6.3,7.3-20.4-1.3
		L181.1,185.1z"/>
	<path fill="#F8C76A" d="M186,191.1c0,0.2-0.2,0.2-0.2,0.2c-1,0.4-1.6,0.8-2.2,1.3c-1.7,1.3-1.3,3.1-0.2,4.4
		c0.3,0.4,1.5,1.1,2.4,1.6c1.6,0.8,3.2,1.2,3.2,1.2c0.5,0.2,0.4,0.4,0.4,0.4c0,0.3-0.4,0.3-0.4,0.3c-0.7,0.1-2,0.1-2.9,0.2
		c-2.1,0.2-4.2,0.6-4.8,1.7c-1.3,2.7,0.9,4.3,0.9,4.3c0.3,0.3,0.2,0.4,0.2,0.4c0,0.2-0.3,0.1-0.3,0.1c-1.1,0-1.9,0.2-2.6,0.4
		c-5.2,1.8,2.4,8.7,2.4,8.7c0.3,0.4,0.1,0.5,0.1,0.5c-0.1,0.1-0.3,0-0.3,0c-2.9-1.3-7.1-2.8-8.5-1.7c-1.7,1.3-0.5,5.3-0.5,5.3
		c-0.1,0.1-0.3,0-0.3,0c-1-0.5-1.8-0.6-2.6-0.7c-1.3-0.1-2.2,0.2-2.4,0.3c-0.1,0.1-0.2,0.1-0.3,0.2c0,0,0,0,0,0
		c-2,1.9-0.1,7.1-0.1,7.1c0.1,0.4-0.1,0.5-0.1,0.5c-0.1,0.1-0.3-0.1-0.3-0.1c-0.3-0.2-0.9-0.9-1.4-1.4c-0.9-0.8-1.7-1.6-2.4-2
		c-0.8-0.5-2.9-1.1-3.8,0c-1.1,1.2-1,4.2-1,4.2c0,0.5-0.2,0.5-0.2,0.5c-0.1,0.1-0.3-0.1-0.3-0.1c-0.7-0.8-1.6-1.6-2.3-2
		c-1.4-0.7-2.4-0.5-2.4-0.5c-3.1,0.4-3.3,6.6-3.3,6.6c-0.1,0.4-0.3,0.4-0.3,0.4c-0.2,0-0.2-0.2-0.2-0.2c-1.8-5.7-4.2-6.1-4.2-6.1
		c-2.4-0.5-4,3-4,3c-0.2,0.4-0.3,0.5-0.3,0.5c-0.2,0-0.2-0.4-0.2-0.4c-0.3-1.1-0.7-1.8-1.1-2.4c-1.1-1.6-2.4-1.7-2.4-1.7
		c-2.7-0.4-4.6,2-4.6,2c-0.3,0.4-0.4,0.2-0.4,0.2c-0.2,0-0.1-0.3-0.1-0.3c0-1.1-0.3-1.9-0.6-2.6c-0.7-1.7-1.6-2.1-1.6-2.1
		c-2.6-1.5-5.8,3.1-5.8,3.1c-0.3,0.3-0.5,0.2-0.5,0.2c-0.2-0.1,0-0.4,0-0.4c0.9-1.8,1.2-3.9,1.1-4.6c-0.3-1.7-1.3-2.2-1.3-2.2
		c-1.8-1.4-4.9,0.1-4.9,0.1c-0.4,0.2-0.5,0.1-0.5,0.1c-0.1-0.1,0-0.3,0-0.3c0.6-1.2,0.7-2.2,0.7-2.9c0-1.3-0.8-2.3-0.8-2.3
		c-1.9-2.1-6.6,0-6.6,0c-0.4,0.1-0.5,0-0.5,0c-0.1-0.1,0.1-0.3,0.1-0.3c0.8-0.9,2.2-1.8,2.7-3.4c0.5-1.5,0-2.5,0-2.5
		c-1.1-2.3-4.6-2-4.6-2c-0.5,0-0.5-0.1-0.5-0.1c-0.1-0.1,0.1-0.3,0.1-0.3c0.8-0.8,1.3-1.5,1.5-2.2c0.3-1.2-0.2-2.4-1.6-3.1
		c-2.1-1-5.6-1.1-5.6-1.1c-0.5-0.1-0.4-0.2-0.4-0.2c-0.1-0.2,0.2-0.3,0.2-0.3c1.3-0.5,3.1-1.2,4.6-1.9c0.5-0.3,1.3-0.9,1.4-1.1
		c1.5-1.6,1.2-3.2,0.2-4.3c-1-1.1-3-1.3-3-1.3c-0.5-0.1-0.5-0.4-0.5-0.4c0-0.3,0.4-0.5,0.4-0.5c1-0.4,1.8-0.8,2.4-1.3
		c1.4-1.1,1.1-2.4,1.1-2.4c-0.2-2.5-4.7-4.2-4.7-4.2c-0.3-0.1-0.2-0.3-0.2-0.3c0-0.2,0.4-0.1,0.4-0.1c1.5,0,3.3,0.1,5-0.6
		c2.6-1,3.3-2.3,2.6-3.7c-1.1-1.8-3.9-2.7-3.9-2.7c-0.5-0.3-0.4-0.5-0.4-0.5c0.2-0.3,0.8-0.3,0.8-0.3c1.1,0.1,3.7-0.3,5.8-0.8
		c2.9-0.6,4.1-1.7,4.7-3c0.8-1.7,0.4-4.2,1.8-6.9c1.4-2.2,2.4-3.1,4.8-4c0,0,0.7-0.3,1.9-0.5c1.2-0.1,3-0.2,6.5,0.2
		c2,0,2.5-0.4,3.8-1.2c1.4-1,6.4-5.6,12.7-7.3c0,0,1.2-0.2,0.5,0.7c0,0-3.3,2.4-3.9,3.9c0.1,0,0.2,0,0.3,0c2.1-0.7,6.5-1.8,12.2-1.9
		c0,0,1.3,0.1,0.3,0.8c0,0-3,1.2-4.4,2.4c2.2-0.3,6.7-0.6,12.2,0.4c0,0,1.2,0.3,0.1,0.9c0,0-7,0.9-8.5,1.9c5.5,1.8,9.6,6.5,13.6,9.9
		c1.6,1.4,3,2.6,4.7,3.4c1.6,0.7,3.1,0.5,3.1,0.5c0.5-0.1,0.5,0.1,0.5,0.1c0.1,0.1-0.1,0.3-0.1,0.3c-0.7,0.8-1.1,1.6-1.3,2.3
		c-0.4,1.1-0.4,2-0.3,2.3c0.3,0.9,1.3,2.1,3.3,2.9c0.5,0.2,1.1,0.4,1.9,0.6c1.1,0.3,1.7,0.5,1.8,0.9c0.1,0.4-0.9,1-1.9,1.6
		c-2.2,1.4-2.8,2.7-2.7,4.1c0.8,2.4,3.4,3.2,3.4,3.2C186,190.9,186,191.1,186,191.1"/>
	<path fill="#CA842A" d="M167.5,169.6c0,0,14.5-16.7,18.7-11.5c0,0,0.7,1,1.3,2.8c0.8,2.9,1.1,7.7-5,9.2
		C182.5,170.1,177.8,171.4,167.5,169.6"/>
	<path fill="#FFFFFF" d="M151.7,163.9c-0.1,2.8-2.5,5-5.3,4.9c-2.8-0.1-5-2.5-4.9-5.3c0.1-2.8,2.5-5,5.3-4.9
		C149.6,158.8,151.8,161.1,151.7,163.9"/>
	<path fill="#954B21" d="M143.3,163.6c0,1,0.8,1.9,1.9,1.9c1,0,1.9-0.8,1.9-1.9c0-1-0.8-1.8-1.9-1.8
		C144.2,161.7,143.3,162.6,143.3,163.6"/>
	<path fill="#FFFFFF" d="M133,165.2c-0.1,2.4-2.1,4.3-4.5,4.2c-2.4-0.1-4.3-2.1-4.2-4.5c0.1-2.4,2.1-4.3,4.5-4.2
		C131.2,160.8,133.1,162.8,133,165.2"/>
	<path fill="#954B21" d="M125.8,164.6c0,0.9,0.7,1.6,1.6,1.6c0.9,0,1.6-0.7,1.6-1.6c0-0.9-0.7-1.6-1.6-1.6
		C126.5,163,125.8,163.8,125.8,164.6"/>
	<path fill="#FFE0B0" d="M113.4,196.5c1.7-6,8.6-13.6,25.5-13.6c15.9,0,26.2,6.2,27.1,16.8c0.2,2.8-0.1,5.7-1.3,8.5
		c9.8-3.2,14.7-10.5,15.4-20c0,0,3.3,29.2-24.7,34.7C120,229.8,110.8,206,113.4,196.5"/>
	<path fill="#FFFFFF" d="M137.9,203.9c-0.9,0.6-1.2,1.9-0.6,2.8c0.5,1,1.7,1.2,2.6,0.6c0.9-0.6,1.2-1.9,0.6-2.8
		C139.9,203.6,138.8,203.3,137.9,203.9"/>
	<path fill="#FFFFFF" d="M140.9,199.4c0.1,0.9,0.9,1.6,1.8,1.5c0.9-0.1,1.6-0.9,1.5-1.8c-0.1-0.9-0.9-1.5-1.8-1.5
		C141.4,197.7,140.8,198.5,140.9,199.4"/>
	<path fill="#FFFFFF" d="M125,205c0.5,0.4,0.6,1,0.2,1.5c-0.4,0.4-1.1,0.5-1.5,0.2c-0.5-0.4-0.5-1-0.2-1.4
		C123.9,204.7,124.6,204.6,125,205"/>
	<path fill="#FFFFFF" d="M152,205c0.5,0.4,0.5,1,0.2,1.5c-0.4,0.4-1.1,0.5-1.5,0.2c-0.5-0.4-0.5-1-0.2-1.4
		C150.8,204.7,151.5,204.6,152,205"/>
	<path fill="#FFFFFF" d="M150.9,190.5c0.5,0.4,0.5,1,0.2,1.5c-0.4,0.4-1.1,0.5-1.5,0.2c-0.5-0.4-0.5-1-0.2-1.5
		C149.7,190.2,150.4,190.1,150.9,190.5"/>
	<path fill="#FFFFFF" d="M120.8,197.6c-0.1,0.7-0.6,1.2-1.3,1.2c-0.6-0.1-1.1-0.7-1-1.4c0.1-0.7,0.6-1.2,1.3-1.2
		C120.4,196.2,120.8,196.9,120.8,197.6"/>
	<path fill="#FFFFFF" d="M129.6,201.8c0.1,0.9,0.9,1.5,1.8,1.5c0.9-0.1,1.6-0.9,1.5-1.8c-0.1-0.9-0.9-1.5-1.8-1.5
		C130.2,200.1,129.5,200.9,129.6,201.8"/>
	<path fill="#FFFFFF" d="M125.3,196.5c0.4,1.3,1.7,2,3,1.6c1.3-0.4,2-1.7,1.6-3c-0.4-1.3-1.7-2-3-1.6
		C125.6,193.9,124.9,195.3,125.3,196.5"/>
	<path fill="#954B21" d="M128.9,174.1c0,0,6.5,2.9,21.1,0c2.4-0.5-14.8,6.5-18.2,6.4C128.5,180.3,133.7,178.5,128.9,174.1"/>
</g>
<g>
	<g>
		<defs>
			<path id="SVGID_1_" d="M66.5,130.6c1.3,0.5-0.6,4-2.1,3.4c-7.1-2.8-15-1.7-22.5-3.3c-5.5-1.2-11-2.9-15.8-5.8
				c-8.2-4.8-14.5-12.1-17.7-21c-9.3-25.7,4-55.8,22.3-74.2C55.3,5,91.8-2.9,124.4,10.3c17.6,7.1,34.9,20.1,40.7,39
				c5.2,17,0.9,36.2-11.5,48.9c-11.5,11.7-26.9,18.6-40.4,27.6c-6.3,4.2-13.2,9-17.2,15.6c-4.2,6.9-4.1,14.5-1.5,22
				c0.4,1.1-2,4.1-2.7,2.6c-6.4-13.7-13.4-25-27.5-31.8 M64.4,134c-1.3-0.7,23.3-10.8,24.7-10.1c14.2,7-1.3,25.1,5.3,39
				c-0.9,0.9-1.8,1.8-2.7,2.6c-4.9-14.4-22-24.5-10.7-33.8"/>
		</defs>
		<clipPath id="SVGID_2_">
			<use xlink:href="#SVGID_1_"  overflow="visible"/>
		</clipPath>
		<rect x="5.3" y="4" clip-path="url(#SVGID_2_)" fill="#FFFFFF" width="169.7" height="189.5"/>
	</g>
	<path fill="#58B0DC" d="M64.4,134c14,6.9,21,18.1,27.5,31.8c0.7,1.4,3.1-1.5,2.7-2.6c-2.6-7.5-2.7-15.1,1.5-22
		c4-6.6,10.9-11.4,17.2-15.6c13.5-8.9,28.9-15.8,40.4-27.6c12.4-12.7,16.7-31.9,11.5-48.9c-5.8-18.9-23.1-31.9-40.7-39
		C91.8-2.9,55.3,5,30.7,29.8C12.4,48.1-0.9,78.3,8.4,104c3.2,8.9,9.5,16.2,17.7,21c4.9,2.9,10.3,4.6,15.8,5.8
		C49.3,132.4,57.3,131.2,64.4,134c1.5,0.6,3.5-2.9,2.1-3.4c-8.1-3.2-17.3-2-25.8-4.1c-6.9-1.7-13.4-4.9-18.8-9.4
		c-10-8.4-13.9-21.5-13.5-34.2C9.2,52,32.8,23.8,60.8,12.8c17.5-6.9,36.9-6.9,54.8-1.5c19.7,5.9,39.2,19.3,46.5,39.2
		c3.9,10.7,3,22.6-1,33.1c-2.9,7.7-9.2,13.5-15.5,18.5c-13.1,10.2-28.7,16.7-41.6,27.3c-11.3,9.3-17.1,21.9-12.2,36.2
		c0.9-0.9,1.8-1.8,2.7-2.6c-6.5-13.9-13.7-25.3-27.9-32.3C65.1,130,63,133.4,64.4,134"/>
	<path fill="#EC5C24" d="M32.9,52.6v-0.1c0-0.3-0.1-0.6-0.5-0.6c-0.3,0-0.5,0-0.9,0.5c-0.6,0.8-1.5,1-2.4,0.6
		c-0.9-0.5-1.3-1.4-0.9-2.5c1.2-2.8,3.3-4.2,6-4.2c4.7,0,6,3.1,6,6.7v0.1c0,2-0.2,6-0.2,9c1.6-1.3,4.1-3,8.1-3
		C54,59.2,58,64.6,58,72c0,2.9-0.7,5.3-1.9,7.1c4.5-2,7.6-6.2,7.6-14.7c0-1.4,1.1-2.5,2.5-2.5c1.4,0,2.5,1.1,2.5,2.5
		c0,15-10.3,21.9-23.9,21.9c-8.6,0-11.6-5.4-11.6-7.9c0-1.5,0.2-3.4,0.2-4.9C33.4,59.2,32.9,55.3,32.9,52.6 M40,70.8l-0.2,7.8
		c0,0,1.5,2,4.9,2c3.2,0,6.4-2.5,6.4-8.6c0-4.2-1.9-6.6-4.7-6.6C42,65.3,40.1,68.4,40,70.8"/>
	<path fill="#EC5C24" d="M67.3,47.9c2.3,0,4.2,1.9,4.2,4.2c0,2.3-1.9,4.2-4.2,4.2c-2.3,0-4.2-1.9-4.2-4.2
		C63.1,49.7,65,47.9,67.3,47.9 M63.7,79.4c0-1.7,0.2-3.4,0.2-5.9c0-4.2-0.5-10.6-0.5-10.6c0-2,1.7-3.7,3.7-3.7c2,0,3.7,1.7,3.7,3.7
		c0,6.4-0.5,10.1-0.5,16c0,0.9,0.8,1.7,1.7,1.7c3.2,0,6.6-4.2,6.6-16.2c0-1.4,1.1-2.5,2.5-2.5c1.4,0,2.5,1.1,2.5,2.5
		c0,14.8-5.2,21.9-13.3,21.9C66.5,86.2,63.7,83.1,63.7,79.4"/>
	<path fill="#EC5C24" d="M87.3,86.2c-5.7,0-8.9-3.4-8.9-7.6c0-1.7,0.2-3.5,0.2-5.2c0-3.5,0-6.5-0.1-9.3h-0.6c-1.2,0-2.2-1-2.2-2.2
		c0-1.2,1-2.2,2.2-2.2h0.4c-0.1-2-0.1-3.9-0.1-5.7c0-2,1.7-3.7,3.7-3.7c2,0,3.7,1.7,3.7,3.7c0,1.5,0,3.4-0.1,5.5
		c1.6,0,3.4-0.1,5.8-0.1c1.4,0,2.5,1.1,2.5,2.5c0,1.4-1.1,2.5-2.5,2.5c-2.4,0-4.3,0-5.9,0c-0.1,4-0.2,8.4-0.2,12.3
		c0,2.1,1.1,3.9,3.4,3.9c5.4,0,9.1-4.7,9.1-16.2c0-1.4,1.1-2.5,2.5-2.5c1.4,0,2.5,1.1,2.5,2.5C102.5,77.9,96.9,86.2,87.3,86.2"/>
	<path fill="#EC5C24" d="M112.4,64.4c0-1.4,1.1-2.5,2.5-2.5c1.4,0,2.5,1.1,2.5,2.5c0,14.8-5.2,21.9-13.3,21.9
		c-3.8,0-6.6-3.1-6.6-6.9c0-1.5,0.2-4.4,0.2-5.9c0-14.3-0.5-19.2-0.5-23.4c0-2,1.7-3.7,3.7-3.7c2,0,3.7,1.7,3.7,3.7
		c0,4.2-0.5,8.6-0.5,28.8c0,0.9,0.8,1.7,1.7,1.7C108.9,80.6,112.4,76.4,112.4,64.4"/>
	<path fill="#EC5C24" d="M129.5,80.1c-1.3,1.6-4.4,3-8.5,3c-5.9,0-8.6-4.2-8.6-9.6c0-4.2-0.5-7.4-0.5-10.1c0-2,1.7-3.7,3.7-3.7
		c2,0,3.7,1.7,3.7,3.7c0,2.7-0.5,6.6-0.5,9.6c0,2.5,1,4.4,3.9,4.4c4.5,0,6.4-2.7,6.4-5.2c0-3-0.5-6.1-0.5-8.9c0-2,1.7-3.7,3.7-3.7
		c2,0,3.7,1.7,3.7,3.7c0,2.7-0.5,5.9-0.5,10.1v0.9c0,2.5,0.3,4.7,0.6,6.5c0.9-0.5,1.8-1.4,2.9-3c0.6-0.8,1.6-1.1,2.5-0.7
		c1,0.5,1.5,1.5,1,2.7c-1.1,2.6-3.1,4.7-5.8,5.7c0,0.3,0,0.6,0,1c0,5.7-1.9,12.3-12.3,12.3c-7.9,0-10.1-3.5-10.1-7.4
		c0-6.2,7.9-6.7,15.4-8.6L129.5,80.1z M130,87.3c-5.6,1.1-9,1.5-9,4.1c0,1.1,0.8,2.5,3.4,2.5c4.4,0,5.8-2.7,5.7-5.7
		C130.1,87.9,130,87.6,130,87.3"/>
</g>
</svg>
