<?xml version="1.0" encoding="utf-8"?>
<!-- Generator: Adobe Illustrator 14.0.0, SVG Export Plug-In . SVG Version: 6.00 Build 43363)  -->
<!DOCTYPE svg PUBLIC "-//W3C//DTD SVG 1.1//EN" "http://www.w3.org/Graphics/SVG/1.1/DTD/svg11.dtd">
<svg version="1.1" id="Layer_1" xmlns="http://www.w3.org/2000/svg" xmlns:xlink="http://www.w3.org/1999/xlink" x="0px" y="0px"
	 width="583px" height="199px" viewBox="0 0 583 199" enable-background="new 0 0 583 199" xml:space="preserve">
<g>
	<g>
		<circle fill="#F7931E" stroke="#F7931E" cx="48.428" cy="53.924" r="40.183"/>
		<text transform="matrix(1 0 0 1 22.1035 80.3115)" fill="#FFFFFF" font-family="'Helvetica-Bold'" font-size="72.9035">D</text>
	</g>
	<g>
		<circle fill="#874F17" stroke="#874F17" cx="145.74" cy="53.924" r="40.183"/>
		<text transform="matrix(1 0 0 1 125.4678 80.3115)" fill="#FFFFFF" font-family="'Helvetica-Bold'" font-size="72.9035">J</text>
	</g>
	<g>
		<circle fill="#0000FF" stroke="#0000FF" cx="243.053" cy="54.937" r="40.183"/>
		<text transform="matrix(1 0 0 1 217.3154 79.2988)" fill="#FFFFFF" font-family="'Helvetica-Bold'" font-size="72.9035">A</text>
	</g>
	<g>
		<circle fill="#FFFF00" stroke="#FFFF00" cx="340.365" cy="53.924" r="40.183"/>
		<text transform="matrix(1 0 0 1 314.041 80.3115)" font-family="'Helvetica-Bold'" font-size="72.9035">N</text>
	</g>
	<g>
		<circle fill="#99CC33" stroke="#99CC33" cx="437.677" cy="53.924" r="40.182"/>
		<text transform="matrix(1 0 0 1 409.3223 80.3115)" fill="#FFFFFF" font-family="'Helvetica-Bold'" font-size="72.9035">G</text>
	</g>
	<g>
		<circle fill="#FF0000" stroke="#FF0000" cx="534.991" cy="54.262" r="40.183"/>
		<text transform="matrix(1 0 0 1 506.6377 79.9746)" fill="#FFFFFF" font-family="'Helvetica-Bold'" font-size="72.9035">O</text>
	</g>
</g>
<g>
	<g>
		<circle fill="#FFFF00" stroke="#FFFF00" cx="194.25" cy="148.938" r="40.183"/>
		<text transform="matrix(1 0 0 1 167.9248 175.3252)" font-family="'Helvetica-Bold'" font-size="72.9035">N</text>
	</g>
	<g>
		<circle fill="#007527" stroke="#007527" cx="291.563" cy="148.938" r="40.183"/>
		<text transform="matrix(1 0 0 1 267.623 177.3496)" fill="#FFFFFF" font-family="'Helvetica-Bold'" font-size="72.9035">Y</text>
	</g>
	<g>
		<circle fill="#0000FF" stroke="#0000FF" cx="389.168" cy="148.938" r="40.183"/>
		<text transform="matrix(1 0 0 1 362.8438 173.2998)" fill="#FFFFFF" font-family="'Helvetica-Bold'" font-size="72.9035">C</text>
	</g>
</g>
</svg>
